<svg xmlns="http://www.w3.org/2000/svg" width="512" height="512" fill="none" viewBox="0 0 512 512"><path fill="#FBC" d="M0 12.8C0 5.73074 5.73076 0 12.8 0H499.2C506.269 0 512 5.73076 512 12.8V499.2C512 506.269 506.269 512 499.2 512H12.8C5.73074 512 0 506.269 0 499.2V12.8Z"/><path fill="#17171C" d="M256.017 363.626C245.344 363.626 235.165 362.341 225.481 359.771C215.994 357.004 207.495 352.854 199.984 347.32C192.474 341.786 186.446 332.401 181.9 324.297C177.551 316.194 175.278 304.042 175.081 292.974C175.081 291.195 175.674 289.713 176.86 288.527C178.046 287.143 179.528 286.452 181.307 286.452H209.471C212.041 286.452 213.918 287.143 215.104 288.527C216.488 289.911 217.575 291.788 218.365 294.16C219.354 301.275 221.627 307.106 225.184 311.652C228.742 316 233.189 319.261 238.525 321.435C244.06 323.412 250.187 324.4 256.907 324.4C269.358 324.4 277.713 319.265 282.802 312.245C289.522 304.141 292.882 292.875 292.882 278.447V189.115C292.882 188.563 292.434 188.115 291.882 188.115H182.115C179.941 188.115 178.162 187.423 176.779 186.04C175.593 184.656 175 182.976 175 181V155.115C175 153.139 175.593 151.459 176.779 150.075C178.162 148.692 179.941 148 182.115 148H330.431C332.605 148 334.384 148.692 335.768 150.075C337.151 151.459 337.843 153.238 337.843 155.412V282.199C337.843 298.603 334.384 315.301 327.467 327.16C320.747 339.019 311.26 348.11 299.005 354.435C286.949 360.562 272.62 363.626 256.017 363.626Z"/></svg>