<svg version="1.1" xmlns="http://www.w3.org/2000/svg" xmlns:xlink="http://www.w3.org/1999/xlink" width="48" height="48"><defs><linearGradient x1="16.18391" y1="16.67242" x2="53.02929" y2="52.54079" gradientUnits="userSpaceOnUse" id="color-1"><stop offset="0" stop-color="#000000" stop-opacity="0.3"></stop><stop offset="1" stop-color="#000000" stop-opacity="0"></stop></linearGradient><filter id="dropshadow-base"><feColorMatrix type="matrix" values="0 0 0 0 0  0 0 0 0 0  0 0 0 0 0  0 0 0 .8 0"></feColorMatrix> <feOffset dx="0" dy="1"></feOffset> <feGaussianBlur stdDeviation="1"></feGaussianBlur> <feComposite in="SourceGraphic"></feComposite></filter><filter id="dropshadow-banner" x="-10%" y="-10%" width="120%" height="130%"><feColorMatrix type="matrix" values="0 0 0 0 0  0 0 0 0 0  0 0 0 0 0  0 0 0 .4 0"></feColorMatrix> <feOffset dx="0" dy="1"></feOffset> <feGaussianBlur stdDeviation="0.5"></feGaussianBlur> <feComposite in="SourceGraphic"></feComposite></filter></defs><g fill="none" fill-rule="nonzero" stroke="none" stroke-width="none" stroke-linecap="butt" stroke-linejoin="miter" stroke-miterlimit="10" stroke-dasharray="" stroke-dashoffset="0" font-family="none" font-weight="none" font-size="none" text-anchor="none" style="mix-blend-mode: normal"><path d="M2,24c0,-12.15026 9.84974,-22 22,-22c12.15026,0 22,9.84974 22,22c0,12.15026 -9.84974,22 -22,22c-12.15026,0 -22,-9.84974 -22,-22z" id="base 1 5" fill="#2196f3" stroke-width="1"></path><path d="M16.18391,31.32758v-1.95402h2.93103l-2.93103,-2.93103v-5.86207h4.96322l1.39813,1.39813l0.47773,-0.65072l0.14593,-0.19847l-2.78997,-2.78997l0,0c-0.17708,-0.17708 -0.287,-0.42134 -0.287,-0.69001c0,-0.53736 0.43965,-0.97701 0.97701,-0.97701c0.26868,0 0.51293,0.10991 0.69001,0.287l6.69787,6.69787l0.42821,-0.30699l-2.03218,-2.76983h4.96322l12.31246,12.31246c-2.62211,5.92626 -7.78464,10.4775 -14.10658,12.27272z" fill="url(#color-1)" stroke-width="1"></path><path d="M31.81609,18.62644h-2.13477c0.10747,-0.30776 0.18075,-0.63506 0.18075,-0.97701c0,-1.61695 -1.31408,-2.93103 -2.93103,-2.93103c-1.02098,0 -1.91983,0.5227 -2.44253,1.31408l-0.48851,0.66437l-0.48851,-0.66437c-0.5227,-0.79138 -1.42155,-1.31408 -2.44253,-1.31408c-1.61695,0 -2.93103,1.31408 -2.93103,2.93103c0,0.34195 0.06839,0.66925 0.18075,0.97701h-2.13477c-1.0796,0 -1.94425,0.87442 -1.94425,1.95402l-0.00977,10.74712c0,1.0796 0.87442,1.95402 1.95402,1.95402h15.63217c1.0796,0 1.95402,-0.87442 1.95402,-1.95402v-10.74712c0,-1.0796 -0.87442,-1.95402 -1.95402,-1.95402zM26.93103,16.67242c0.53736,0 0.97701,0.43965 0.97701,0.97701c0,0.53736 -0.43965,0.97701 -0.97701,0.97701c-0.53736,0 -0.97701,-0.43965 -0.97701,-0.97701c0,-0.53736 0.43965,-0.97701 0.97701,-0.97701zM21.06897,16.67242c0.53736,0 0.97701,0.43965 0.97701,0.97701c0,0.53736 -0.43965,0.97701 -0.97701,0.97701c-0.53736,0 -0.97701,-0.43965 -0.97701,-0.97701c0,-0.53736 0.43965,-0.97701 0.97701,-0.97701zM31.81609,31.32758h-15.63217v-1.95402h15.63217zM31.81609,26.44253h-15.63217v-5.86207h4.96322l-2.03218,2.76983l1.58764,1.13822l2.3204,-3.16063l0.97701,-1.32873l0.97701,1.32873l2.3204,3.16063l1.58764,-1.13822l-2.03218,-2.76983h4.96322z" fill="none" stroke-width="0"></path><path d="M33.77011,20.58046v10.74712c0,1.0796 -0.87442,1.95402 -1.95402,1.95402h-15.63217c-1.0796,0 -1.95402,-0.87442 -1.95402,-1.95402l0.00977,-10.74712c0,-1.0796 0.86465,-1.95402 1.94425,-1.95402h2.13477c-0.11236,-0.30776 -0.18075,-0.63506 -0.18075,-0.97701c0,-1.61695 1.31408,-2.93103 2.93103,-2.93103c1.02098,0 1.91983,0.5227 2.44253,1.31408l0.48851,0.66437l0.48851,-0.66437c0.5227,-0.79138 1.42155,-1.31408 2.44253,-1.31408c1.61695,0 2.93103,1.31408 2.93103,2.93103c0,0.34195 -0.07328,0.66925 -0.18075,0.97701h2.13477c1.0796,0 1.95402,0.87442 1.95402,1.95402zM25.95402,17.64943c0,0.53736 0.43965,0.97701 0.97701,0.97701c0.53736,0 0.97701,-0.43965 0.97701,-0.97701c0,-0.53736 -0.43965,-0.97701 -0.97701,-0.97701c-0.53736,0 -0.97701,0.43965 -0.97701,0.97701zM20.09196,17.64943c0,0.53736 0.43965,0.97701 0.97701,0.97701c0.53736,0 0.97701,-0.43965 0.97701,-0.97701c0,-0.53736 -0.43965,-0.97701 -0.97701,-0.97701c-0.53736,0 -0.97701,0.43965 -0.97701,0.97701zM31.81609,29.37356h-15.63217v1.95402h15.63217zM31.81609,20.58046h-4.96322l2.03218,2.76983l-1.58764,1.13822l-2.3204,-3.16063l-0.97701,-1.32873l-0.97701,1.32873l-2.3204,3.16063l-1.58764,-1.13822l2.03218,-2.76983h-4.96322v5.86207h15.63217z" fill="#ffffff" stroke-width="0"></path><path d="M2,24c0,-12.15026 9.84974,-22 22,-22c12.15026,0 22,9.84974 22,22c0,12.15026 -9.84974,22 -22,22c-12.15026,0 -22,-9.84974 -22,-22z" id="base 1 1 1" fill="none" stroke-width="1"></path><g fill="#000000" stroke-width="1" font-family="Roboto, sans-serif" font-weight="400" font-size="14" text-anchor="start"></g><rect x="2" y="2" width="44" height="22" fill="none" stroke-width="1"></rect><path d="M2,24v-22h44v22z" fill="none" stroke-width="1"></path><path d="M2,24v-22h44v22z" fill="none" stroke-width="1"></path><path d="M2,24v-22h44v22z" fill="none" stroke-width="1"></path><path d="M2,24v-22h44v22z" fill="none" stroke-width="1"></path></g></svg>