<svg xmlns:xlink="http://www.w3.org/1999/xlink" version="1.1" style="font-family:'lucida grande', 'lucida sans unicode', arial, helvetica, sans-serif;font-size:12px;" xmlns="http://www.w3.org/2000/svg" width="941" height="550"><desc>Created with Highcharts 4.2.5</desc><defs><clipPath id="highcharts-12"><rect x="0" y="0" width="832" height="439"></rect></clipPath></defs><rect x="0" y="0" width="941" height="550" fill="#FFFFFF" class=" highcharts-background"></rect><g class="highcharts-grid"></g><g class="highcharts-grid"><path fill="none" d="M 84 510.5 L 916 510.5" stroke="#D8D8D8" stroke-width="1" opacity="1"></path><path fill="none" d="M 84 455.5 L 916 455.5" stroke="#D8D8D8" stroke-width="1" opacity="1"></path><path fill="none" d="M 84 400.5 L 916 400.5" stroke="#D8D8D8" stroke-width="1" opacity="1"></path><path fill="none" d="M 84 345.5 L 916 345.5" stroke="#D8D8D8" stroke-width="1" opacity="1"></path><path fill="none" d="M 84 291.5 L 916 291.5" stroke="#D8D8D8" stroke-width="1" opacity="1"></path><path fill="none" d="M 84 236.5 L 916 236.5" stroke="#D8D8D8" stroke-width="1" opacity="1"></path><path fill="none" d="M 84 181.5 L 916 181.5" stroke="#D8D8D8" stroke-width="1" opacity="1"></path><path fill="none" d="M 84 126.5 L 916 126.5" stroke="#D8D8D8" stroke-width="1" opacity="1"></path><path fill="none" d="M 84 70.5 L 916 70.5" stroke="#D8D8D8" stroke-width="1" opacity="1"></path></g><g class="highcharts-axis"><path fill="none" d="M 129.5 510 L 129.5 520" stroke="#C0D0E0" stroke-width="1" opacity="1"></path><path fill="none" d="M 187.5 510 L 187.5 520" stroke="#C0D0E0" stroke-width="1" opacity="1"></path><path fill="none" d="M 245.5 510 L 245.5 520" stroke="#C0D0E0" stroke-width="1" opacity="1"></path><path fill="none" d="M 304.5 510 L 304.5 520" stroke="#C0D0E0" stroke-width="1" opacity="1"></path><path fill="none" d="M 362.5 510 L 362.5 520" stroke="#C0D0E0" stroke-width="1" opacity="1"></path><path fill="none" d="M 420.5 510 L 420.5 520" stroke="#C0D0E0" stroke-width="1" opacity="1"></path><path fill="none" d="M 478.5 510 L 478.5 520" stroke="#C0D0E0" stroke-width="1" opacity="1"></path><path fill="none" d="M 537.5 510 L 537.5 520" stroke="#C0D0E0" stroke-width="1" opacity="1"></path><path fill="none" d="M 595.5 510 L 595.5 520" stroke="#C0D0E0" stroke-width="1" opacity="1"></path><path fill="none" d="M 653.5 510 L 653.5 520" stroke="#C0D0E0" stroke-width="1" opacity="1"></path><path fill="none" d="M 711.5 510 L 711.5 520" stroke="#C0D0E0" stroke-width="1" opacity="1"></path><path fill="none" d="M 770.5 510 L 770.5 520" stroke="#C0D0E0" stroke-width="1" opacity="1"></path><path fill="none" d="M 828.5 510 L 828.5 520" stroke="#C0D0E0" stroke-width="1" opacity="1"></path><path fill="none" d="M 886.5 510 L 886.5 520" stroke="#C0D0E0" stroke-width="1" opacity="1"></path><path fill="none" d="M 84 510.5 L 916 510.5" stroke="#C0D0E0" stroke-width="1"></path></g><g class="highcharts-axis"><text x="27.65625" text-anchor="middle" transform="translate(0,0) rotate(270 27.65625 290.5)" class=" highcharts-yaxis-title" style="color:#707070;fill:#707070;" y="290.5">USD</text></g><g class="highcharts-series-group"><g class="highcharts-series highcharts-series-0" transform="translate(84,71) scale(1 1)" clip-path="url(#highcharts-12)"><path fill="none" d="M 8.156862745098 147.34595999999993 L 37.288515406162 190.8684200000001 L 66.420168067227 170.62613000000005 L 95.551820728291 184.82997500000005 L 124.68347338936 209.90346000000005 L 153.81512605042 201.46149000000003 L 182.94677871148 181.1006700000001 L 212.07843137255 144.8019549999999 L 241.21008403361 139.81052499999998 L 270.34173669468 140.36805499999997 L 299.47338935574 141.73114999999996 L 328.60504201681 133.528435 L 357.73669467787 86.0483900000001 L 386.86834733894 88.9018900000001 L 416 55.25912499999998 L 445.13165266106 19.37307000000004 L 474.26330532213 92.10658999999998 L 503.39495798319 77.23107500000009 L 532.52661064426 143.972245 L 561.65826330532 112.22595999999993 L 590.78991596639 78.62051000000008 L 619.92156862745 75.80432500000006 L 649.05322128852 151.29037499999998 L 678.18487394958 137.06677499999995 L 707.31652661064 147.07597500000003 L 736.44817927171 165.044245 L 765.57983193277 171.42291500000005 L 794.71148459384 228.001235 L 823.8431372549 368.84341" stroke="#039bd3" stroke-width="2" stroke-linejoin="round" stroke-linecap="round"></path></g><g class="highcharts-markers highcharts-series-0" transform="translate(84,71) scale(1 1)" clip-path="none"></g></g><text x="471" text-anchor="middle" class="highcharts-title" style="color:#333333;font-size:18px;fill:#333333;width:877px;" y="24"><tspan>Market Price (USD)</tspan></text><text x="471" text-anchor="middle" class="highcharts-subtitle" style="color:#555555;fill:#555555;width:877px;" y="52"><tspan>source: blockchain.info</tspan></text><g class="highcharts-legend"><g><g></g></g></g><g class="highcharts-axis-labels highcharts-xaxis-labels"><text x="129.78524743230625" style="color:#606060;cursor:default;font-size:11px;fill:#606060;width:60px;text-overflow:clip;" text-anchor="middle" transform="translate(0,0)" y="529" opacity="1"><tspan>18. Aug</tspan></text><text x="188.0485527544351" style="color:#606060;cursor:default;font-size:11px;fill:#606060;width:60px;text-overflow:clip;" text-anchor="middle" transform="translate(0,0)" y="529" opacity="1"><tspan>20. Aug</tspan></text><text x="246.31185807656396" style="color:#606060;cursor:default;font-size:11px;fill:#606060;width:60px;text-overflow:clip;" text-anchor="middle" transform="translate(0,0)" y="529" opacity="1"><tspan>22. Aug</tspan></text><text x="304.5751633986928" style="color:#606060;cursor:default;font-size:11px;fill:#606060;width:60px;text-overflow:clip;" text-anchor="middle" transform="translate(0,0)" y="529" opacity="1"><tspan>24. Aug</tspan></text><text x="362.83846872082165" style="color:#606060;cursor:default;font-size:11px;fill:#606060;width:60px;text-overflow:clip;" text-anchor="middle" transform="translate(0,0)" y="529" opacity="1"><tspan>26. Aug</tspan></text><text x="421.1017740429505" style="color:#606060;cursor:default;font-size:11px;fill:#606060;width:60px;text-overflow:clip;" text-anchor="middle" transform="translate(0,0)" y="529" opacity="1"><tspan>28. Aug</tspan></text><text x="479.36507936507934" style="color:#606060;cursor:default;font-size:11px;fill:#606060;width:60px;text-overflow:clip;" text-anchor="middle" transform="translate(0,0)" y="529" opacity="1"><tspan>30. Aug</tspan></text><text x="537.6283846872082" style="color:#606060;cursor:default;font-size:11px;fill:#606060;width:60px;text-overflow:clip;" text-anchor="middle" transform="translate(0,0)" y="529" opacity="1"><tspan>1. Sep</tspan></text><text x="595.891690009337" style="color:#606060;cursor:default;font-size:11px;fill:#606060;width:60px;text-overflow:clip;" text-anchor="middle" transform="translate(0,0)" y="529" opacity="1"><tspan>3. Sep</tspan></text><text x="654.1549953314659" style="color:#606060;cursor:default;font-size:11px;fill:#606060;width:60px;text-overflow:clip;" text-anchor="middle" transform="translate(0,0)" y="529" opacity="1"><tspan>5. Sep</tspan></text><text x="712.4183006535948" style="color:#606060;cursor:default;font-size:11px;fill:#606060;width:60px;text-overflow:clip;" text-anchor="middle" transform="translate(0,0)" y="529" opacity="1"><tspan>7. Sep</tspan></text><text x="770.6816059757236" style="color:#606060;cursor:default;font-size:11px;fill:#606060;width:60px;text-overflow:clip;" text-anchor="middle" transform="translate(0,0)" y="529" opacity="1"><tspan>9. Sep</tspan></text><text x="828.9449112978524" style="color:#606060;cursor:default;font-size:11px;fill:#606060;width:60px;text-overflow:clip;" text-anchor="middle" transform="translate(0,0)" y="529" opacity="1"><tspan>11. Sep</tspan></text><text x="887.2082166199813" style="color:#606060;cursor:default;font-size:11px;fill:#606060;width:60px;text-overflow:clip;" text-anchor="middle" transform="translate(0,0)" y="529" opacity="1"><tspan>13. Sep</tspan></text></g><g class="highcharts-axis-labels highcharts-yaxis-labels"><text x="0" style="color:#606060;cursor:default;font-size:11px;fill:#606060;width:301px;text-overflow:clip;" text-anchor="end" transform="translate(0,0)" y="-9999">3,000</text><text x="69" style="color:#606060;cursor:default;font-size:11px;fill:#606060;width:301px;text-overflow:clip;" text-anchor="end" transform="translate(0,0)" y="458" opacity="1">3,250</text><text x="69" style="color:#606060;cursor:default;font-size:11px;fill:#606060;width:301px;text-overflow:clip;" text-anchor="end" transform="translate(0,0)" y="403" opacity="1">3,500</text><text x="69" style="color:#606060;cursor:default;font-size:11px;fill:#606060;width:301px;text-overflow:clip;" text-anchor="end" transform="translate(0,0)" y="348" opacity="1">3,750</text><text x="69" style="color:#606060;cursor:default;font-size:11px;fill:#606060;width:301px;text-overflow:clip;" text-anchor="end" transform="translate(0,0)" y="293" opacity="1">4,000</text><text x="69" style="color:#606060;cursor:default;font-size:11px;fill:#606060;width:301px;text-overflow:clip;" text-anchor="end" transform="translate(0,0)" y="238" opacity="1">4,250</text><text x="69" style="color:#606060;cursor:default;font-size:11px;fill:#606060;width:301px;text-overflow:clip;" text-anchor="end" transform="translate(0,0)" y="183" opacity="1">4,500</text><text x="69" style="color:#606060;cursor:default;font-size:11px;fill:#606060;width:301px;text-overflow:clip;" text-anchor="end" transform="translate(0,0)" y="128" opacity="1">4,750</text><text x="69" style="color:#606060;cursor:default;font-size:11px;fill:#606060;width:301px;text-overflow:clip;" text-anchor="end" transform="translate(0,0)" y="74" opacity="1">5,000</text></g><g class="highcharts-tooltip" style="cursor:default;padding:0;pointer-events:none;white-space:nowrap;" transform="translate(0,-9999)"><path fill="none" d="M 3.5 0.5 L 13.5 0.5 C 16.5 0.5 16.5 0.5 16.5 3.5 L 16.5 13.5 C 16.5 16.5 16.5 16.5 13.5 16.5 L 3.5 16.5 C 0.5 16.5 0.5 16.5 0.5 13.5 L 0.5 3.5 C 0.5 0.5 0.5 0.5 3.5 0.5"  stroke="black" stroke-opacity="0.049999999999999996" stroke-width="5" transform="translate(1, 1)"></path><path fill="none" d="M 3.5 0.5 L 13.5 0.5 C 16.5 0.5 16.5 0.5 16.5 3.5 L 16.5 13.5 C 16.5 16.5 16.5 16.5 13.5 16.5 L 3.5 16.5 C 0.5 16.5 0.5 16.5 0.5 13.5 L 0.5 3.5 C 0.5 0.5 0.5 0.5 3.5 0.5"  stroke="black" stroke-opacity="0.09999999999999999" stroke-width="3" transform="translate(1, 1)"></path><path fill="none" d="M 3.5 0.5 L 13.5 0.5 C 16.5 0.5 16.5 0.5 16.5 3.5 L 16.5 13.5 C 16.5 16.5 16.5 16.5 13.5 16.5 L 3.5 16.5 C 0.5 16.5 0.5 16.5 0.5 13.5 L 0.5 3.5 C 0.5 0.5 0.5 0.5 3.5 0.5"  stroke="black" stroke-opacity="0.15" stroke-width="1" transform="translate(1, 1)"></path><path fill="rgb(249, 249, 249)" fill-opacity=" .85" d="M 3.5 0.5 L 13.5 0.5 C 16.5 0.5 16.5 0.5 16.5 3.5 L 16.5 13.5 C 16.5 16.5 16.5 16.5 13.5 16.5 L 3.5 16.5 C 0.5 16.5 0.5 16.5 0.5 13.5 L 0.5 3.5 C 0.5 0.5 0.5 0.5 3.5 0.5"></path><text x="8" style="font-size:12px;color:#333333;fill:#333333;" y="20"></text></g></svg>