<svg xmlns="http://www.w3.org/2000/svg" width="512" height="512" fill="none" viewBox="0 0 512 512"><rect width="512" height="512" fill="#000"/><path fill="#FBC" d="M292.215 298.897C301.497 314.052 313.573 325.192 334.931 325.192C352.873 325.192 364.335 316.225 364.335 303.834C364.335 288.986 352.559 283.727 332.81 275.088L321.985 270.444C290.737 257.131 269.979 240.454 269.979 205.199C269.979 172.723 294.724 148 333.395 148C360.927 148 380.719 157.582 394.983 182.67L361.263 204.321C353.839 191.009 345.83 185.764 333.395 185.764C320.712 185.764 312.673 193.81 312.673 204.321C312.673 217.312 320.719 222.571 339.298 230.616L350.123 235.254C386.915 251.031 407.688 267.115 407.688 303.278C407.688 342.264 377.062 363.622 335.933 363.622C295.718 363.622 269.738 344.458 257.025 319.34L292.215 298.897ZM139.248 302.649C146.051 314.718 152.239 324.921 167.116 324.921C181.343 324.921 190.318 319.355 190.318 297.712V150.472H233.619V298.297C233.619 343.134 207.331 363.542 168.959 363.542C134.289 363.542 114.211 345.599 104 323.989L139.248 302.649Z"/></svg>