<svg xmlns="http://www.w3.org/2000/svg" width="512" height="512" fill="none" viewBox="0 0 512 512"><rect width="512" height="512" fill="#FFBBCC"/><path fill="#000" d="M343.934 400.002C354.247 416.841 367.665 429.219 391.396 429.219C411.331 429.219 424.066 419.255 424.066 405.488C424.066 388.99 410.982 383.147 389.039 373.549L377.011 368.388C342.292 353.597 319.228 335.067 319.228 295.895C319.228 259.812 346.722 232.342 389.689 232.342C420.279 232.342 442.271 242.989 458.118 270.864L420.653 294.92C412.404 280.129 403.505 274.302 389.689 274.302C375.597 274.302 366.665 283.242 366.665 294.92C366.665 309.354 375.605 315.197 396.247 324.137L408.275 329.289C449.154 346.819 472.235 364.69 472.235 404.87C472.235 448.187 438.207 471.918 392.509 471.918C347.827 471.918 318.96 450.625 304.835 422.717L343.934 400.002ZM173.974 404.171C181.532 417.581 188.408 428.918 204.938 428.918C220.745 428.918 230.717 422.733 230.717 398.685V235.089H278.829V399.336C278.829 449.154 249.62 471.828 206.986 471.828C168.464 471.828 146.156 451.893 134.81 427.882L173.974 404.171Z"/></svg>
